<svg xmlns="http://www.w3.org/2000/svg" xmlns:xlink="http://www.w3.org/1999/xlink" contentStyleType="text/css" height="696px" preserveAspectRatio="none" style="width:644px;height:696px;background:#FFFFFF;" version="1.1" viewBox="0 0 644 696" width="644px" zoomAndPan="magnify"><title>&#1057;&#1093;&#1077;&#1084;&#1072; &#1088;&#1086;&#1079;&#1075;&#1086;&#1088;&#1090;&#1072;&#1085;&#1085;&#1103; &#1076;&#1077;&#1084;&#1086;&#1085;&#1089;&#1090;&#1088;&#1072;&#1094;&#1110;&#1081;&#1085;&#1086;&#1075;&#1086; &#1089;&#1077;&#1088;&#1077;&#1076;&#1086;&#1074;&#1080;&#1097;&#1072; (Docker Compose)</title><defs/><g><text fill="#000000" font-family="Arial" font-size="14" font-weight="bold" lengthAdjust="spacing" textLength="484.2441" x="10" y="23.1318">&#1057;&#1093;&#1077;&#1084;&#1072; &#1088;&#1086;&#1079;&#1075;&#1086;&#1088;&#1090;&#1072;&#1085;&#1085;&#1103; &#1076;&#1077;&#1084;&#1086;&#1085;&#1089;&#1090;&#1088;&#1072;&#1094;&#1110;&#1081;&#1085;&#1086;&#1075;&#1086; &#1089;&#1077;&#1088;&#1077;&#1076;&#1086;&#1074;&#1080;&#1097;&#1072; (Docker Compose)</text><!--cluster Docker host--><g id="cluster_Docker host"><polygon fill="#FFFFFF" points="28.9769,138.0986,38.9769,128.0986,509.9769,128.0986,509.9769,669.0986,499.9769,679.0986,28.9769,679.0986,28.9769,138.0986" style="stroke:#2B6CB0;stroke-width:1.0;"/><line style="stroke:#2B6CB0;stroke-width:1.0;" x1="499.9769" x2="509.9769" y1="138.0986" y2="128.0986"/><line style="stroke:#2B6CB0;stroke-width:1.0;" x1="28.9769" x2="499.9769" y1="138.0986" y2="138.0986"/><line style="stroke:#2B6CB0;stroke-width:1.0;" x1="499.9769" x2="499.9769" y1="138.0986" y2="679.0986"/><text fill="#000000" font-family="Arial" font-size="12" font-weight="bold" lengthAdjust="spacing" textLength="69.3516" x="230.8011" y="152.3545">Docker host</text></g><!--cluster gw--><g id="cluster_gw"><polygon fill="#FFFFFF" points="39.9769,167.0986,49.9769,157.0986,484.9769,157.0986,484.9769,256.0986,474.9769,266.0986,39.9769,266.0986,39.9769,167.0986" style="stroke:#2B6CB0;stroke-width:1.0;"/><line style="stroke:#2B6CB0;stroke-width:1.0;" x1="474.9769" x2="484.9769" y1="167.0986" y2="157.0986"/><line style="stroke:#2B6CB0;stroke-width:1.0;" x1="39.9769" x2="474.9769" y1="167.0986" y2="167.0986"/><line style="stroke:#2B6CB0;stroke-width:1.0;" x1="474.9769" x2="474.9769" y1="167.0986" y2="266.0986"/><text fill="#000000" font-family="Arial" font-size="12" font-weight="bold" lengthAdjust="spacing" textLength="92.7246" x="212.1145" y="181.3545">gateway-service</text><text fill="#000000" font-family="Arial" font-size="12" font-weight="bold" lengthAdjust="spacing" textLength="86.6543" x="215.1497" y="195.1533">(Spring Boot 4)</text><text fill="#000000" font-family="Arial" font-size="12" font-weight="bold" lengthAdjust="spacing" textLength="53.3555" x="231.7991" y="208.9521">port 8080</text></g><!--cluster rs--><g id="cluster_rs"><polygon fill="#FFFFFF" points="177.9769,311.0986,187.9769,301.0986,484.9769,301.0986,484.9769,400.0986,474.9769,410.0986,177.9769,410.0986,177.9769,311.0986" style="stroke:#2B6CB0;stroke-width:1.0;"/><line style="stroke:#2B6CB0;stroke-width:1.0;" x1="474.9769" x2="484.9769" y1="311.0986" y2="301.0986"/><line style="stroke:#2B6CB0;stroke-width:1.0;" x1="177.9769" x2="474.9769" y1="311.0986" y2="311.0986"/><line style="stroke:#2B6CB0;stroke-width:1.0;" x1="474.9769" x2="474.9769" y1="311.0986" y2="410.0986"/><text fill="#000000" font-family="Arial" font-size="12" font-weight="bold" lengthAdjust="spacing" textLength="96.0645" x="279.4446" y="325.3545">resource-service</text><text fill="#000000" font-family="Arial" font-size="12" font-weight="bold" lengthAdjust="spacing" textLength="86.6543" x="284.1497" y="339.1533">(Spring Boot 4)</text><text fill="#000000" font-family="Arial" font-size="12" font-weight="bold" lengthAdjust="spacing" textLength="53.3555" x="300.7991" y="352.9521">port 8081</text></g><!--cluster ps--><g id="cluster_ps"><polygon fill="#FFFFFF" points="48.9769,455.0986,58.9769,445.0986,246.9769,445.0986,246.9769,558.0986,236.9769,568.0986,48.9769,568.0986,48.9769,455.0986" style="stroke:#2B6CB0;stroke-width:1.0;"/><line style="stroke:#2B6CB0;stroke-width:1.0;" x1="236.9769" x2="246.9769" y1="455.0986" y2="445.0986"/><line style="stroke:#2B6CB0;stroke-width:1.0;" x1="48.9769" x2="236.9769" y1="455.0986" y2="455.0986"/><line style="stroke:#2B6CB0;stroke-width:1.0;" x1="236.9769" x2="236.9769" y1="455.0986" y2="568.0986"/><text fill="#000000" font-family="Arial" font-size="12" font-weight="bold" lengthAdjust="spacing" textLength="80.0449" x="103.9544" y="469.3545">policy-service</text><text fill="#000000" font-family="Arial" font-size="12" font-weight="bold" lengthAdjust="spacing" textLength="86.6543" x="100.6497" y="483.1533">(Spring Boot 4)</text><text fill="#000000" font-family="Arial" font-size="12" font-weight="bold" lengthAdjust="spacing" textLength="53.3555" x="117.2991" y="496.9521">port 8082</text></g><!--entity user--><g id="elem_user"><path d="M310.4008,49.3804 C313.3322,44.0497 317.8206,44.1892 321.4484,48.59 C324.2346,43.2413 329.979,42.4298 333.3313,47.9723 C336.1264,40.9484 341.8853,38.7152 347.2538,45.3489 C350.6015,39.2914 355.2869,39.2847 359.3804,44.5501 C362.4418,39.2354 367.5667,39.1608 371.0966,44.01 C375.8075,38.4362 379.8781,38.8647 383.6029,45.058 C387.9441,39.0379 392.1362,40.2286 395.3031,46.2034 C400.3386,40.5103 405.1472,41.4609 408.8018,47.758 C412.8666,42.7633 417.7612,43.3684 420.9666,48.7641 C425.2277,45.1765 429.1521,45.6497 431.6301,50.9125 C438.2766,52.855 438.6115,59.1245 434.1707,63.3347 C440.8813,69.0509 439.5691,73.6655 432.5491,77.8474 C429.3332,83.6207 422.7499,85.4003 419.2271,78.1616 C416.681,84.5874 413.1439,85.8674 408.0733,80.5617 C405.1754,86.793 399.8957,86.2647 396.3502,81.2359 C392.8793,88.7481 387.6837,87.7843 383.0355,82.4568 C378.9719,89.5944 374.9303,88.903 370.1356,83.1908 C365.68,89.0939 361.5776,88.6402 357.9048,82.4022 C354.2675,88.4681 348.9405,87.7086 346.1542,81.582 C341.9554,85.8809 338.4634,86.4591 334.943,80.8169 C331.0718,86.062 324.9074,86.1569 322.3338,79.4481 C317.4889,85.4754 313.2874,84.5715 309.9135,77.9981 C302.1559,75.8807 299.6641,70.6186 305.8465,64.3479 C299.9187,57.3844 302.2056,52.0467 310.4008,49.3804 " fill="#F1F1F1" style="stroke:#181818;stroke-width:0.5;"/><text fill="#000000" font-family="Arial" font-size="12" lengthAdjust="spacing" textLength="108.7441" x="315.4769" y="67.3545">&#1050;&#1086;&#1088;&#1080;&#1089;&#1090;&#1091;&#1074;&#1072;&#1095; / &#1050;&#1083;&#1110;&#1108;&#1085;&#1090;</text></g><!--entity prom--><g id="elem_prom"><polygon fill="#FFFFFF" points="130.4769,623.0986,140.4769,613.0986,233.846,613.0986,233.846,660.6963,223.846,670.6963,130.4769,670.6963,130.4769,623.0986" style="stroke:#2B6CB0;stroke-width:0.5;"/><line style="stroke:#2B6CB0;stroke-width:0.5;" x1="223.846" x2="233.846" y1="623.0986" y2="613.0986"/><line style="stroke:#2B6CB0;stroke-width:0.5;" x1="130.4769" x2="223.846" y1="623.0986" y2="623.0986"/><line style="stroke:#2B6CB0;stroke-width:0.5;" x1="223.846" x2="223.846" y1="623.0986" y2="670.6963"/><text fill="#000000" font-family="Arial" font-size="12" lengthAdjust="spacing" textLength="63.3691" x="145.4769" y="644.3545">prometheus</text><text fill="#000000" font-family="Arial" font-size="12" lengthAdjust="spacing" textLength="50.707" x="145.4769" y="658.1533">port 9090</text></g><!--entity graf--><g id="elem_graf"><polygon fill="#FFFFFF" points="410.4769,512.0986,420.4769,502.0986,501.1839,502.0986,501.1839,549.6963,491.1839,559.6963,410.4769,559.6963,410.4769,512.0986" style="stroke:#2B6CB0;stroke-width:0.5;"/><line style="stroke:#2B6CB0;stroke-width:0.5;" x1="491.1839" x2="501.1839" y1="512.0986" y2="502.0986"/><line style="stroke:#2B6CB0;stroke-width:0.5;" x1="410.4769" x2="491.1839" y1="512.0986" y2="512.0986"/><line style="stroke:#2B6CB0;stroke-width:0.5;" x1="491.1839" x2="491.1839" y1="512.0986" y2="559.6963"/><text fill="#000000" font-family="Arial" font-size="12" lengthAdjust="spacing" textLength="40.6992" x="425.4769" y="533.3545">grafana</text><text fill="#000000" font-family="Arial" font-size="12" lengthAdjust="spacing" textLength="50.707" x="425.4769" y="547.1533">port 3000</text></g><!--entity gw_app--><g id="elem_gw_app"><rect fill="#F1F1F1" height="43.7988" rx="3" ry="3" style="stroke:#181818;stroke-width:0.5;" width="242.7461" x="233.4769" y="214.0986"/><rect fill="#F1F1F1" height="10" style="stroke:#181818;stroke-width:0.5;" width="15" x="456.2229" y="219.0986"/><rect fill="#F1F1F1" height="2" style="stroke:#181818;stroke-width:0.5;" width="4" x="454.2229" y="221.0986"/><rect fill="#F1F1F1" height="2" style="stroke:#181818;stroke-width:0.5;" width="4" x="454.2229" y="225.0986"/><text fill="#000000" font-family="Arial" font-size="12" lengthAdjust="spacing" textLength="202.7461" x="248.4769" y="245.3545">Spring MVC + RestClient + WebClient</text></g><!--entity gw_zt--><g id="elem_gw_zt"><rect fill="#F1F1F1" height="43.7988" rx="3" ry="3" style="stroke:#181818;stroke-width:0.5;" width="132.6836" x="82.4769" y="214.0986"/><rect fill="#F1F1F1" height="10" style="stroke:#181818;stroke-width:0.5;" width="15" x="195.1604" y="219.0986"/><rect fill="#F1F1F1" height="2" style="stroke:#181818;stroke-width:0.5;" width="4" x="193.1604" y="221.0986"/><rect fill="#F1F1F1" height="2" style="stroke:#181818;stroke-width:0.5;" width="4" x="193.1604" y="225.0986"/><text fill="#000000" font-family="Arial" font-size="12" lengthAdjust="spacing" textLength="92.6836" x="97.4769" y="245.3545">Zero Trust starter</text></g><!--entity rs_app--><g id="elem_rs_app"><rect fill="#F1F1F1" height="43.7988" rx="3" ry="3" style="stroke:#181818;stroke-width:0.5;" width="104.6875" x="371.4769" y="358.0986"/><rect fill="#F1F1F1" height="10" style="stroke:#181818;stroke-width:0.5;" width="15" x="456.1644" y="363.0986"/><rect fill="#F1F1F1" height="2" style="stroke:#181818;stroke-width:0.5;" width="4" x="454.1644" y="365.0986"/><rect fill="#F1F1F1" height="2" style="stroke:#181818;stroke-width:0.5;" width="4" x="454.1644" y="369.0986"/><text fill="#000000" font-family="Arial" font-size="12" lengthAdjust="spacing" textLength="64.6875" x="386.4769" y="389.3545">Spring MVC</text></g><!--entity rs_zt--><g id="elem_rs_zt"><rect fill="#F1F1F1" height="43.7988" rx="3" ry="3" style="stroke:#181818;stroke-width:0.5;" width="132.6836" x="220.4769" y="358.0986"/><rect fill="#F1F1F1" height="10" style="stroke:#181818;stroke-width:0.5;" width="15" x="333.1604" y="363.0986"/><rect fill="#F1F1F1" height="2" style="stroke:#181818;stroke-width:0.5;" width="4" x="331.1604" y="365.0986"/><rect fill="#F1F1F1" height="2" style="stroke:#181818;stroke-width:0.5;" width="4" x="331.1604" y="369.0986"/><text fill="#000000" font-family="Arial" font-size="12" lengthAdjust="spacing" textLength="92.6836" x="235.4769" y="389.3545">Zero Trust starter</text></g><!--entity ps_app--><g id="elem_ps_app"><rect fill="#F1F1F1" height="57.5977" rx="3" ry="3" style="stroke:#181818;stroke-width:0.5;" width="146.7109" x="91.4769" y="502.0986"/><rect fill="#F1F1F1" height="10" style="stroke:#181818;stroke-width:0.5;" width="15" x="218.1878" y="507.0986"/><rect fill="#F1F1F1" height="2" style="stroke:#181818;stroke-width:0.5;" width="4" x="216.1878" y="509.0986"/><rect fill="#F1F1F1" height="2" style="stroke:#181818;stroke-width:0.5;" width="4" x="216.1878" y="513.0986"/><text fill="#000000" font-family="Arial" font-size="12" lengthAdjust="spacing" textLength="106.7109" x="106.4769" y="533.3545">DemoOpaController</text><text fill="#000000" font-family="Arial" font-size="12" lengthAdjust="spacing" textLength="78.457" x="106.4769" y="547.1533">(&#1110;&#1084;&#1110;&#1090;&#1072;&#1094;&#1110;&#1103; OPA)</text></g><polygon fill="#2B6CB0" points="57.112,156.905,63.5268,149.4317,58.547,152.1154,55.8633,147.1357,57.112,156.905" style="stroke:#2B6CB0;stroke-width:1.0;"/><path d="M300.3121,70.1081 C222.5318,78.3122 103.5289,95.8286 72.9769,128.0986 C66.705,134.7232 62.1994,142.6781 59.0159,151.2216 C58.618,152.2896 58.2407,153.3667 57.8833,154.4516 C57.7045,154.994 57.5307,155.5384 57.3618,156.0845 C57.2773,156.3576 58.9161,150.8836 58.834,151.1575 " fill="none" style="stroke:#2B6CB0;stroke-width:1.2;"/><text fill="#000000" font-family="Arial" font-size="12" lengthAdjust="spacing" textLength="73.9922" x="117.9769" y="116.3545">HTTPS / JWT</text><polygon fill="#2B6CB0" points="181.8106,300.9297,178.3144,291.7223,178.2902,297.3791,172.6334,297.3549,181.8106,300.9297" style="stroke:#2B6CB0;stroke-width:1.0;"/><path d="M72.9769,266.0986 C88.4003,277.5142 97.6639,267.8247 114.9769,276.0986 C126.1259,281.4268 125.6785,288.0948 136.9769,293.0986 C146.2636,297.2115 153.9647,295.579 161.1186,294.7345 C164.6955,294.3122 168.1356,294.087 171.5687,294.8755 C173.2853,295.2697 175.0001,295.9174 176.7294,296.9205 C177.594,297.4221 178.4623,298.0126 179.3362,298.7047 C179.7731,299.0507 180.2115,299.4222 180.6515,299.8206 C180.8715,300.0199 181.092,300.2258 181.3128,300.4388 C181.4233,300.5452 181.5338,300.6535 181.6445,300.7634 C181.6998,300.8184 177.5307,296.6131 177.5861,296.669 " fill="none" style="stroke:#2B6CB0;stroke-width:1.2;"/><text fill="#000000" font-family="Arial" font-size="12" lengthAdjust="spacing" textLength="81.6973" x="138.9769" y="289.3545">REST + Bearer</text><polygon fill="#2B6CB0" points="82.1561,444.9413,91.5879,442.1057,85.947,441.6811,86.3716,436.0402,82.1561,444.9413" style="stroke:#2B6CB0;stroke-width:1.0;"/><path d="M189.558,410.2837 C189.5386,410.3484 189.5191,410.4131 189.4995,410.4778 C189.4603,410.6072 189.4208,410.7367 189.3809,410.8663 C189.2214,411.3844 189.0564,411.9031 188.8856,412.4217 C188.544,413.459 188.1796,414.4963 187.7907,415.529 C184.6795,423.7907 180.0037,431.7584 172.9769,437.0986 C164.8956,443.2402 145.9256,441.8537 127.0859,440.6251 C117.666,440.0108 108.2787,439.436 100.3014,439.8613 C96.3128,440.074 92.6766,440.5367 89.5651,441.3695 C88.0094,441.786 86.5848,442.2949 85.3129,442.9115 C84.677,443.2197 84.0792,443.5548 83.5223,443.9188 C83.2438,444.1007 82.9756,444.2898 82.7179,444.4864 C82.5891,444.5847 82.4629,444.6848 82.3393,444.7869 C82.2776,444.8379 86.7656,440.9771 86.7052,441.0291 " fill="none" style="stroke:#2B6CB0;stroke-width:1.2;"/><text fill="#000000" font-family="Arial" font-size="12" lengthAdjust="spacing" textLength="112.0605" x="187.9769" y="433.3545">POST /opa/authorize</text><polygon fill="#2B6CB0" points="130.4129,628.5749,123.18,621.8902,125.6791,626.9651,120.6042,629.4642,130.4129,628.5749" style="stroke:#2B6CB0;stroke-width:1.0;"/><path d="M45.5391,266.2202 C45.4525,266.4854 45.3655,266.7521 45.2782,267.0204 C44.929,268.0937 44.5749,269.1917 44.2165,270.314 C41.3489,279.2918 38.2032,289.8161 35.0764,301.5427 C28.8228,324.9959 22.6447,353.2581 18.9178,383.575 C11.4641,444.2088 13.8153,513.0614 44.9769,568.0986 C62.7701,599.5248 93.7917,616.121 124.7324,626.6431 " fill="none" style="stroke:#2B6CB0;stroke-width:1.2;"/><text fill="#000000" font-family="Arial" font-size="12" lengthAdjust="spacing" textLength="113.3965" x="17.9769" y="433.3545">/actuator/prometheus</text><polygon fill="#2B6CB0" points="212.6033,613.0376,221.8375,609.6126,216.181,609.5447,216.2489,603.8883,212.6033,613.0376" style="stroke:#2B6CB0;stroke-width:1.0;"/><path d="M210.9769,410.0986 C228.8172,421.6025 291.774,404.3222 305.9769,420.0986 C311.0321,425.7139 310.2643,430.8773 305.9769,437.0986 C300.3093,445.3225 291.6985,437.7113 284.9769,445.0986 C246.8067,487.0489 276.4285,517.4133 250.9769,568.0986 C244.1548,581.6843 240.1585,583.8094 229.9769,595.0986 C224.5657,601.0985 222.8181,603.0651 216.8966,608.8461 " fill="none" style="stroke:#2B6CB0;stroke-width:1.2;"/><text fill="#000000" font-family="Arial" font-size="12" lengthAdjust="spacing" textLength="113.3965" x="286.9769" y="535.8545">/actuator/prometheus</text><polygon fill="#2B6CB0" points="133.6529,613.0243,128.4459,604.6645,129.5136,610.2197,123.9584,611.2874,133.6529,613.0243" style="stroke:#2B6CB0;stroke-width:1.0;"/><path d="M81.9769,568.0986 C96.3554,585.4953 110.7947,597.5363 128.6857,609.6587 " fill="none" style="stroke:#2B6CB0;stroke-width:1.2;"/><text fill="#000000" font-family="Arial" font-size="12" lengthAdjust="spacing" textLength="113.3965" x="110.9769" y="591.3545">/actuator/prometheus</text><polygon fill="#2B6CB0" points="233.7518,626.7969,243.5147,628.0954,238.5487,625.3863,241.2578,620.4203,233.7518,626.7969" style="stroke:#2B6CB0;stroke-width:1.0;"/><path d="M411.3245,560.2798 C406.2297,563.0764 401.0454,565.7459 395.9769,568.0986 C342.3898,592.9726 283.604,612.1374 239.5081,625.1042 " fill="none" style="stroke:#2B6CB0;stroke-width:1.2;"/><text fill="#000000" font-family="Arial" font-size="12" lengthAdjust="spacing" textLength="103.2949" x="368.9769" y="591.3545">&#1079;&#1072;&#1087;&#1080;&#1090;&#1080; &#1085;&#1072; &#1084;&#1077;&#1090;&#1088;&#1080;&#1082;&#1080;</text><polygon fill="#6B7280" points="468.6871,502.0015,475.8745,495.268,470.6331,497.3957,468.5053,492.1543,468.6871,502.0015" style="stroke:#6B7280;stroke-width:1.0;"/><path d="M437.7862,85.1955 C457.8016,94.9353 477.4242,108.768 488.9769,128.0986 C562.1713,250.5724 500.2863,427.2145 471.0223,496.4746 " fill="none" style="stroke:#6B7280;stroke-width:1.2;"/><text fill="#000000" font-family="Arial" font-size="12" lengthAdjust="spacing" textLength="111.2578" x="523.9769" y="289.3545">&#1087;&#1077;&#1088;&#1077;&#1075;&#1083;&#1103;&#1076; &#1076;&#1072;&#1096;&#1073;&#1086;&#1088;&#1076;&#1091;</text><!--SRC=[bLHTJnD157tVNt5TNY04MwfWuS645eanKGXj956CkMo7TjFjpcPcrWQC2PJuzSIBuS4t_y4gD5Q5yXTc_f5tjWki117xjBtdp9apS- -PMv70PWSXm2qUAv0TfZ14HxRzC4A17TX0hzqKF0uRLHvm0MDBwI_7a2riyAuVDc4J0yboI8DjOXoe9Hwg9zXXu2u87mFtQaRDtsOmNSg1sQuYP09cS_N03vdQYXXmeLey1uIymIh_z9kok6WmaJ5AbTbgfPXtXGetKDv0wvpvXzvIUMPc8ST28NZtRvkbOBtbU-sGIGdJjqkEetmLCD1Vp5lTrySw0REZX_gxFjH3isDwEj4d-iJiWpvAyI7zsJKz8YNcdJdGFmWUMZAONTsdSf-8G_rD3yn74XjVv5wRxhJAEn6NRC9nl8373N3rPwjFB2ksH_p4l8S2KFcNEJ2VQ9UU2oWXbamuZhr7S3Ej5fVAXTSEmAZSHCMwk3L5p5U-nzR3yLeax8nKE5TmTs8zZAXxK2wMYwbaivik1l2igP252jninUEdLPY4LIPLDV0jC0bhR6FqdQrzYL5qUVKp9ZZKHInfgXKAnSGPULiHzurpxbKmoMFXiHkOdKurXBpER4Rv3qz4lkmfue7ltUJwIgb2T8MZHTRXon5MALk21m4Jf4B3SKojx8q6XIPeUMLX8bF83ETD24xlGOl5CjjlhZWtQfT5BdejS9CUZOnpfrZCMafbXzJijC3Kr7tRutbuMA-lr6Ye7gtL7IhOEbtdFAm-gDMfinM6WeQBIXQ9BBAoJ4Y1HrZ0cF8kw9quMsbj4AE0defHSL6uS7mkSGqb-ZV57Y9FeX0c-fGYqjC3e9WbGFdhfzaRw9zwa9ts-TXivLwfN7nXZsqbQELf5iL3IjE-FhBXJSm7_JNDt97P-mq0]--></g></svg>